<svg width="120" height="40" viewBox="0 0 120 40" fill="none" xmlns="http://www.w3.org/2000/svg">
  <path d="M20 10C14.4772 10 10 14.4772 10 20C10 25.5228 14.4772 30 20 30C25.5228 30 30 25.5228 30 20C30 14.4772 25.5228 10 20 10ZM20 26C16.6863 26 14 23.3137 14 20C14 16.6863 16.6863 14 20 14C23.3137 14 26 16.6863 26 20C26 23.3137 23.3137 26 20 26Z" fill="#3DD397"/>
  <path d="M42 25V15H45V22.6H50V25H42Z" fill="#3DD397"/>
  <path d="M52 25V15H55V25H52Z" fill="#3DD397"/>
  <path d="M58 25V15H61V25H58Z" fill="#3DD397"/>
  <path d="M64 25V15H67V25H64Z" fill="#3DD397"/>
</svg>